<svg id="Layer_1" data-name="Layer 1" xmlns="http://www.w3.org/2000/svg" viewBox="0 0 800 600">
  <title>Artboard 1</title>
  <g>
    <path d="M132,203.86c0,36.78-22.35,56.27-49.61,56.27-28.22,0-48-21.87-48-54.21C34.4,172,55.48,149.81,84,149.81,113.18,149.81,132,172.16,132,203.86Zm-82.9,1.75c0,22.82,12.37,43.27,34.08,43.27,21.88,0,34.24-20.13,34.24-44.38,0-21.24-11.1-43.43-34.08-43.43C60.55,161.07,49.14,182.15,49.14,205.61Z"/>
    <path d="M149.48,202.44c0-7.93-.16-14.43-.64-20.77h12.37l.79,12.68h.32c3.8-7.29,12.68-14.42,25.36-14.42,10.62,0,27.1,6.34,27.1,32.65v45.81H200.83V214.17c0-12.37-4.59-22.67-17.75-22.67-9.19,0-16.32,6.5-18.7,14.27a19.86,19.86,0,0,0-.95,6.49v46.13h-14Z"/>
    <path d="M292.14,255.54c-3.65,1.9-11.73,4.44-22,4.44-23.14,0-38.2-15.7-38.2-39.16s16.17-40.73,41.21-40.73c8.25,0,15.54,2.06,19.34,4l-3.17,10.78c-3.33-1.9-8.56-3.65-16.17-3.65-17.59,0-27.1,13-27.1,29,0,17.75,11.41,28.69,26.63,28.69a39.7,39.7,0,0,0,17.12-3.8Z"/>
    <path d="M315.28,222.57c.32,18.86,12.36,26.63,26.31,26.63,10,0,16-1.75,21.24-4l2.38,10c-4.91,2.22-13.31,4.76-25.52,4.76C316.07,260,302,244.44,302,221.3s13.64-41.37,36-41.37c25,0,31.7,22,31.7,36.14a52.26,52.26,0,0,1-.48,6.5Zm40.89-10c.16-8.88-3.64-22.67-19.33-22.67-14.11,0-20.29,13-21.4,22.67Z"/>
    <path d="M434.79,151.56V214.8c0,23.94,10.62,34.08,24.89,34.08,15.85,0,26-10.46,26-34.08V151.56h13.95v62.29c0,32.81-17.27,46.28-40.42,46.28-21.87,0-38.36-12.52-38.36-45.65V151.56Z"/>
    <path d="M523.08,206.72c0-9.83-.32-17.76-.63-25.05H535l.63,13.16h.32c5.71-9.35,14.74-14.9,27.26-14.9,18.55,0,32.5,15.69,32.5,39,0,27.58-16.8,41.21-34.87,41.21-10.15,0-19-4.43-23.62-12h-.32v41.68H523.08Zm13.79,20.44a31.14,31.14,0,0,0,.64,5.71,21.51,21.51,0,0,0,20.92,16.33c14.74,0,23.3-12,23.3-29.64,0-15.38-8.08-28.54-22.83-28.54-9.51,0-18.38,6.82-21.08,17.28a23,23,0,0,0-1,5.71Z"/>
    <path d="M682.7,219.4c0,28.37-19.66,40.73-38.2,40.73-20.77,0-36.78-15.21-36.78-39.46,0-25.68,16.81-40.74,38-40.74C667.8,179.93,682.7,195.94,682.7,219.4Zm-60.87.79c0,16.8,9.67,29.48,23.3,29.48,13.32,0,23.3-12.52,23.3-29.8,0-13-6.5-29.48-23-29.48S621.83,205.61,621.83,220.19Z"/>
    <path d="M700.29,202.44c0-7.93-.15-14.43-.63-20.77H712l.8,12.68h.31c3.81-7.29,12.68-14.42,25.36-14.42,10.62,0,27.11,6.34,27.11,32.65v45.81h-14V214.17c0-12.37-4.6-22.67-17.75-22.67-9.2,0-16.33,6.5-18.71,14.27a20.13,20.13,0,0,0-1,6.49v46.13h-14Z"/>
    <path d="M207.17,415l-11.09,33.6H181.81l36.3-106.83h16.64L271.21,448.6H256.47L245.06,415Zm35-10.78-10.46-30.75c-2.38-7-4-13.31-5.55-19.5h-.31c-1.59,6.34-3.33,12.84-5.39,19.34L210,404.22Z"/>
    <path d="M334.3,353.5H301.8V341.77h79.1V353.5H348.25v95.1H334.3Z"/>
    <path d="M406,350.33c.15,4.75-3.33,8.56-8.88,8.56a8.3,8.3,0,0,1-8.4-8.56,8.49,8.49,0,0,1,8.72-8.72C402.62,341.61,406,345.41,406,350.33ZM390.41,448.6V371.89h13.95V448.6Z"/>
    <path d="M427.5,392.65c0-7.93-.16-14.43-.63-20.76h12.2l.64,12.36h.47c4.28-7.29,11.41-14.11,24.1-14.11,10.46,0,18.38,6.34,21.71,15.38h.32a31.68,31.68,0,0,1,8.56-10c4.59-3.49,9.67-5.39,17-5.39,10.14,0,25.2,6.66,25.2,33.29V448.6H523.4V405.17c0-14.74-5.39-23.62-16.64-23.62-7.93,0-14.11,5.87-16.49,12.68a23.15,23.15,0,0,0-1.11,7V448.6H475.53v-46c0-12.21-5.39-21.09-16-21.09-8.72,0-15.06,7-17.28,13.95a19.3,19.3,0,0,0-1.11,6.82V448.6H427.5Z"/>
    <path d="M567.47,412.78c.31,18.86,12.36,26.63,26.31,26.63,10,0,16-1.74,21.24-4l2.38,10c-4.92,2.22-13.32,4.76-25.52,4.76-23.62,0-37.73-15.54-37.73-38.68s13.63-41.37,36-41.37c25,0,31.7,22,31.7,36.14a52.68,52.68,0,0,1-.47,6.5Zm40.89-10c.16-8.87-3.64-22.66-19.34-22.66-14.1,0-20.29,13-21.4,22.66Z"/>
  </g>
</svg>
