<svg id="Layer_1" data-name="Layer 1" xmlns="http://www.w3.org/2000/svg" viewBox="0 0 800 1497">
  <title>Artboard 1</title>
  <g>
    <path d="M232.26,264c.89,53.39,35,75.38,74.48,75.38,28.27,0,45.32-4.94,60.12-11.22l6.73,28.27c-13.91,6.28-37.69,13.46-72.24,13.46-66.85,0-106.78-44-106.78-109.48s38.58-117.11,101.85-117.11c70.89,0,89.74,62.37,89.74,102.3a148.54,148.54,0,0,1-1.35,18.4ZM348,235.77c.45-25.13-10.32-64.16-54.74-64.16-39.93,0-57.43,36.79-60.57,64.16Z"/>
    <path d="M593,223.66H475.44v109h131v32.75H436.4V63H599.72V95.78H475.44v95.57H593Z"/>
    <path d="M160.92,546.85c0-22.43-.45-40.83-1.8-58.78h35l2.24,35.9h.9c10.77-20.64,35.9-40.83,71.79-40.83,30.06,0,76.73,17.95,76.73,92.43V705.24H306.29V580.05c0-35-13-64.16-50.25-64.16-26,0-46.22,18.4-53,40.38-1.79,4.94-2.69,11.67-2.69,18.4V705.24H160.92Z"/>
    <path d="M411.28,705.24V402.82H453.9l96.92,153c22.43,35.44,39.93,67.3,54.29,98.26l.89-.45c-3.58-40.38-4.48-77.18-4.48-124.29V402.82h36.79V705.24H598.83l-96-153.45c-21.09-33.65-41.28-68.2-56.54-101l-1.34.45c2.24,38.14,3.14,74.48,3.14,124.74V705.24Z"/>
    <path d="M237,949.91,205.56,1045H165.18L267.93,742.62H315L418.24,1045H376.51L344.2,949.91Zm99.16-30.51-29.62-87c-6.73-19.74-11.21-37.69-15.7-55.19h-.9c-4.49,18-9.42,36.34-15.25,54.74L245,919.4Z"/>
    <path d="M583.35,1045l-3.15-27.37h-1.34c-12.12,17.05-35.45,32.31-66.41,32.31-44,0-66.4-31-66.4-62.37,0-52.49,46.66-81.21,130.57-80.76v-4.49c0-17.94-4.94-50.25-49.36-50.25-20.19,0-41.28,6.28-56.53,16.15l-9-26c17.95-11.67,44-19.29,71.34-19.29,66.41,0,82.56,45.31,82.56,88.83V993c0,18.84.9,37.24,3.59,52Zm-5.84-110.82c-43.07-.9-92,6.73-92,48.91,0,25.57,17.05,37.69,37.24,37.69,28.27,0,46.22-17.95,52.5-36.35a41.07,41.07,0,0,0,2.24-12.56Z"/>
    <path d="M186,1238.56c0-27.82-.89-50.25-1.79-70.89h35.44l1.8,37.24h.9c16.15-26.47,41.72-42.18,77.17-42.18,52.5,0,92,44.42,92,110.38,0,78.07-47.56,116.66-98.71,116.66-28.72,0-53.84-12.57-66.85-34.1h-.9v118H186Zm39,57.88a89.53,89.53,0,0,0,1.79,16.15c7.18,27.37,31,46.22,59.23,46.22,41.73,0,66-34.1,66-83.91,0-43.52-22.89-80.76-64.61-80.76-26.93,0-52,19.29-59.68,48.91-1.35,4.93-2.69,10.77-2.69,16.15Z"/>
    <path d="M442.68,1086a452.33,452.33,0,0,1,74.93-5.84c38.59,0,66.85,9,84.8,25.13,16.6,14.36,26.47,36.34,26.47,63.27,0,27.36-8.07,48.9-23.33,64.61-20.64,22-54.29,33.2-92.43,33.2-11.66,0-22.43-.45-31.41-2.69v121.14h-39Zm39,145.82c8.53,2.24,19.3,3.14,32.31,3.14,47.11,0,75.83-22.88,75.83-64.61,0-39.93-28.27-59.23-71.34-59.23-17.05,0-30.06,1.35-36.8,3.14Z"/>
  </g>
</svg>
